<?xml version="1.0" encoding="UTF-8" standalone="no"?><!DOCTYPE svg PUBLIC "-//W3C//DTD SVG 1.1//EN" "http://www.w3.org/Graphics/SVG/1.1/DTD/svg11.dtd"><svg width="100%" height="100%" viewBox="0 0 471 735" version="1.1" xmlns="http://www.w3.org/2000/svg" xmlns:xlink="http://www.w3.org/1999/xlink" xml:space="preserve" xmlns:serif="http://www.serif.com/" style="fill-rule:evenodd;clip-rule:evenodd;stroke-linejoin:round;stroke-miterlimit:2;"><path d="M470.061,732.922l-425.479,0c-15.562,0 -29.26,-7.971 -37.235,-20.054c-4.644,-7.036 -7.347,-15.466 -7.347,-24.529l0,-641.372c0,-25.936 21.027,-46.963 46.963,-46.963l423.098,0l0,732.917Z" style="fill:#6c3a0b;fill-rule:nonzero;"/><rect x="47.612" y="0.005" width="422.449" height="641.156" style="fill:#25668f;fill-rule:nonzero;"/><path d="M470.061,734.653l-425.911,0c-24.382,0 -44.149,-19.768 -44.149,-44.149l0,-1.731c0,-24.382 19.768,-44.149 44.149,-44.149l425.911,0l0,90.03Z" style="fill:#481c16;fill-rule:nonzero;"/><path d="M470.061,729.026l-422.016,0c-22.23,0 -40.254,-18.023 -40.254,-40.254c0,-22.23 18.023,-40.254 40.254,-40.254l422.016,0l0,80.508Z" style="fill:#e6e6e6;fill-rule:nonzero;"/><path d="M470.061,729.026l-422.016,0c-22.23,0 -40.254,-18.023 -40.254,-40.254l462.27,0l0,40.254Z" style="fill:#cfcfcf;fill-rule:nonzero;"/><path d="M47.612,659.606l45.881,0l0,64.06l-22.94,-32.03l-22.94,32.03l0,-64.06Z" style="fill:#c1272d;fill-rule:nonzero;"/><path d="M51.94,641.16l-8.657,0l0,-641.013c0.58,-0.043 1.446,-0.1 2.506,-0.13c0.831,-0.022 1.398,-0.017 2.541,-0.017c0.805,0.004 2.043,0.004 3.61,0.004l0,641.156Z" style="fill:#481c16;fill-rule:nonzero;"/></svg>