<?xml version="1.0" encoding="UTF-8" standalone="no"?><!DOCTYPE svg PUBLIC "-//W3C//DTD SVG 1.1//EN" "http://www.w3.org/Graphics/SVG/1.1/DTD/svg11.dtd"><svg width="100%" height="100%" viewBox="0 0 1123 1461" version="1.1" xmlns="http://www.w3.org/2000/svg" xmlns:xlink="http://www.w3.org/1999/xlink" xml:space="preserve" xmlns:serif="http://www.serif.com/" style="fill-rule:evenodd;clip-rule:evenodd;stroke-linejoin:round;stroke-miterlimit:2;"><g><g><path d="M743.028,1398.875c-1.944,6.671 -3.747,15.253 -5.988,26.289c-1.54,7.586 -3.201,6.527 -6.503,13.26c-97.482,-0.31 -656.55,-5.497 -673.407,-10.811c-53.551,-16.88 -35.649,-196.414 -43.678,-239.439l5.58,1.144c15.614,8.838 33.364,15.112 51.639,19.382c1.443,60.831 3.536,110.897 6.484,137.769c1.19,10.845 7.171,34.085 8.534,35.902c2.052,2.736 19.71,14.385 48.482,16.192c51.616,3.241 138.997,5.092 236.201,5.927c23.083,0.198 67.893,-9.071 91.736,-8.982c102.576,0.383 203.664,2.159 280.919,3.366Zm-674.73,-356.988c-28.118,-4.596 -49.569,-11.698 -50.199,-22.673c-0.402,-7.007 -1.149,-6.47 -2.438,-13.722c1.604,-6.045 1.713,-5.986 1.732,-6.528c1.352,-39.655 0.57,-39.338 10.095,-495.844c0.814,-0.833 -1.595,-5.374 5.443,-5.572c0.321,-0.009 0.781,-0.022 3.755,1.489c5.894,2.993 22.715,11.536 48.4,18.125c-0.036,2.802 -0.075,5.6 -0.117,8.394c-0.255,16.946 1.915,48.086 1.776,63.959c-0.099,11.361 -16.645,24.727 -16.71,35.292c-0.245,39.592 -0.328,72.867 -0.816,94.406c-1.095,48.298 -1.909,186.309 -0.922,322.675Zm18.157,-692.387c-1.206,-0.238 -2.412,-0.484 -3.617,-0.737c-33.922,-7.124 -44.633,1.989 -52.568,-34.476c12.343,-41.304 -10.865,-187.593 26.392,-238.548c25.375,-34.705 49.95,-43.476 254.821,-52.622c354.086,-15.808 527.36,-8.66 614.055,-11.459c0.89,0.971 2.905,-1.214 3.794,-0.243c5.826,6.359 5.043,27.468 4.952,29.901c-1.418,0.169 -1.761,2.972 -3.179,3.141c-27.75,3.314 -27.407,-5.124 -348.619,-0.152c-314.458,4.867 -455.567,-3.246 -483.663,25.473c-25.02,25.575 50.459,52.036 130.967,42.959c42.8,-4.826 148.449,-16.737 537.387,-8.242c10.256,9.431 6.493,20.192 8.789,38.571c-15.755,0.665 -31.179,1.332 -45.43,1.807c-22.124,0.737 -75.789,-8.629 -134.254,-9.061c-12.135,-0.09 -41.148,9.211 -53.947,9.082c-122.26,-1.23 -246.568,-4.154 -280.197,-7.079c-54.111,-4.705 -108.222,7.058 -138.807,18.821l-11.763,39.995c-18.163,16.347 -23.432,76.672 -25.113,152.868Zm858.668,41.151c9.474,3.86 24.294,-8.444 39.83,4.931c-0.184,56.688 -0.076,56.241 0.083,112.485c0.181,63.944 4.063,69.32 -0.886,145.347c-1.994,0.978 -2.914,3.77 -4.908,4.748c-6.573,3.223 -19.473,3.36 -34.42,2.19c-0.246,-82.467 -0.413,-143.484 -0.413,-157.924c0,-22.516 0.407,-66.138 0.714,-111.777Zm0.263,454.058c13.395,0.335 22.872,0.089 23.627,-0.035c4.567,-0.749 4.212,0.79 8.764,1.644c-0.343,136.895 6.314,313.21 2.241,349.711c-11.739,5.618 -23.002,4.764 -33.529,5.55c-0.134,-45.119 -0.308,-101.548 -0.498,-162.694c-0.055,-17.697 -19.589,-31.085 -19.646,-49.413c-0.041,-13.224 19.395,-31.276 19.353,-44.685c-0.104,-33.281 -0.209,-66.947 -0.311,-100.079Z" style="fill:#761f30;"/><path d="M934.284,41.316c2.874,1.318 5.749,2.637 8.623,3.955c7.351,0.316 73.912,3.177 91.34,11.048c27.619,12.473 13.793,28.377 17.92,192.463c0.716,2.85 1.433,5.699 2.149,8.549c0.814,48.589 6.133,48.503 -5.954,337.647c-1.381,33.042 11.061,45.789 -18.799,52.961c-3.943,0.947 -7.808,2.263 -11.748,3.23c-2.439,0.598 -26.506,6.502 -30.773,5.885c-1.466,-0.212 -1.425,-3.428 -2.892,-3.64c4.949,-76.027 1.067,-81.403 0.886,-145.347c-0.159,-56.244 -0.267,-55.797 -0.083,-112.485c24.722,-20.398 23.034,-23.835 22.595,-57.281c-2.673,-204.041 -4.152,-209.422 -14.831,-225.861c-8.127,-12.509 -15.482,-23.83 -174.49,-29.244c-34.303,-1.168 -45.427,16.764 -51.049,21.299c-388.938,-8.495 -494.587,3.416 -537.387,8.242c-80.508,9.077 -155.987,-17.384 -130.967,-42.959c28.096,-28.719 169.204,-20.606 483.663,-25.473c321.212,-4.972 320.869,3.466 348.619,0.152c1.418,-0.169 1.761,-2.972 3.179,-3.141Z" style="fill:#d39177;"/><path d="M977.777,846.319c5.895,-7.494 56.89,-19.435 59.052,-10.99c4.445,17.358 -0.347,17.75 -0.792,225.762c-16.722,72.774 6.312,201.048 -2.872,212.044c-31.15,37.296 -33.533,37.043 -36.274,34.173c-6.322,-6.618 16.349,-99.358 -7.918,-107.393c-0.738,-0.244 -5.002,-1.656 -8.955,-3.885c4.073,-36.502 -2.584,-212.816 -2.241,-349.711Z" style="fill:#d39177;"/><path d="M925.537,11.658c1.575,-0.831 18.175,-9.587 19.836,-10.025c31.009,-8.171 34.739,16.946 45.034,17.555c38.115,2.258 66.955,-27.764 95.17,2.547c33.233,35.701 25.183,44.652 26.485,142.789c0.788,59.377 6.407,61.333 -10.745,91.443c-3.642,1.506 -5.333,7.255 -47.002,1.363c-0.716,-2.85 -1.433,-5.699 -2.149,-8.549c-4.127,-164.086 9.699,-179.99 -17.92,-192.463c-17.428,-7.871 -83.989,-10.732 -91.34,-11.048c-2.874,-1.318 -5.749,-2.637 -8.623,-3.955c0.09,-2.433 0.874,-23.542 -4.952,-29.901c-0.89,-0.971 -2.905,1.214 -3.794,0.243Z" style="fill:#ee6632;"/><path d="M434.359,289.326c18.256,-8.42 18.08,-8.941 20.33,-8.668c24.555,2.98 -42.202,38.356 -47.44,33.571c-10.352,-9.459 26.961,-24.822 27.11,-24.903Z" style="fill:#600f1c;"/><path d="M284.754,1233.255c7.37,-1.352 7.322,-1.559 7.96,-1.46c25.673,3.955 -44.22,36.189 -37.158,14.289c1.847,-5.727 3.623,-3.661 29.198,-12.829Z" style="fill:#600f1d;"/><path d="M727.11,1221.858c13.348,-4.372 13.929,-4.329 15.175,-4.235c21.713,1.632 -15.901,23.895 -27.998,19.153c-1.403,-0.55 -8.798,-8.29 12.823,-14.918Z" style="fill:#600f1d;"/><path d="M835.487,544.646c33.572,0.272 -8.808,22.362 -18.679,15.369c-10.712,-7.589 16.863,-14.888 18.679,-15.369Z" style="fill:#61101d;"/><path d="M786.532,446.073c4.712,-2.617 4.306,-2.49 4.712,-2.617c22.698,-7.07 -3.88,24.457 -16.479,23.394c-15.747,-1.329 10.261,-19.713 11.766,-20.777Z" style="fill:#5f0f1c;"/><path d="M150.074,667.732c-16.496,15.149 -15.978,0.592 -15.559,-0.688c0.365,-1.114 12.901,-19.38 21.02,-16.089c6.114,2.478 -4.595,15.707 -5.462,16.777Z" style="fill:#610f1d;"/></g><g><path d="M1101.317,255.969c-1.603,7.14 -2.796,12.457 1.198,91.661c7.288,144.491 -1.833,272.161 0.777,279.656c45.744,131.325 -6.157,165.323 -5.797,183.142c4.515,222.98 -6.827,223.716 -0.948,241.925c8.688,26.908 9.019,27.529 2.342,171.219c-1.459,31.396 1.556,33.832 -24.73,68.281c-24.684,32.349 -29.132,25.741 -66.078,37.864c-28.764,9.438 -2.16,30.988 -35.91,82.224c-23.802,36.134 -86.309,44.859 -89.273,44.768c-112.102,-3.455 -120.511,19 -152.362,-18.283c3.302,-6.733 4.963,-5.675 6.503,-13.26c8.564,-42.171 10.723,-48.504 38.867,-49.329c120.711,-3.538 125.035,-5.876 126.074,-16.868c12.937,-136.915 12.266,-137.329 14.103,-140.11c17.817,-26.985 39.878,-11.313 63.935,-22.827c3.953,2.228 8.217,3.64 8.955,3.885c24.268,8.035 1.597,100.776 7.918,107.393c2.742,2.87 5.124,3.122 36.274,-34.173c9.184,-10.996 -13.85,-139.27 2.872,-212.044c0.445,-208.011 5.236,-208.404 0.792,-225.762c-2.163,-8.445 -53.158,3.495 -59.052,10.99c-4.552,-0.854 -4.197,-2.393 -8.764,-1.644c-2.494,0.409 -100.085,2.148 -119.856,-20.085c-19.496,-21.924 -47.858,-120.684 12.41,-171.662c7.708,-6.52 96.265,15.734 117.675,5.234c1.994,-0.978 2.914,-3.77 4.908,-4.748c1.466,0.212 1.425,3.428 2.892,3.64c4.268,0.617 28.334,-5.287 30.773,-5.885c3.939,-0.966 7.805,-2.283 11.748,-3.23c29.86,-7.173 17.418,-19.92 18.799,-52.961c12.087,-289.144 6.767,-289.058 5.954,-337.647c41.67,5.892 43.36,0.143 47.002,-1.363Z" style="fill:#8c2f24;"/><path d="M30.269,314.288c7.935,36.465 18.646,27.352 52.568,34.476c70.165,14.735 143.106,4.372 151.772,15.905c34.429,45.819 12.57,146.954 -14.746,153.174c-100.905,22.978 -169.874,-12.049 -183.176,-18.805c-2.975,-1.511 -3.435,-1.498 -3.755,-1.489c-7.038,0.197 -4.629,4.738 -5.443,5.572c-1.62,-7.944 -0.696,-8.097 -3.34,-11.08c-8.03,-9.06 -10.284,-10.272 -5.857,-110.511c1.849,-41.859 -9.474,-47.279 11.978,-67.242Z" style="fill:#4a0d1c;"/><path d="M15.661,1005.492c1.289,7.252 2.036,6.715 2.438,13.722c1.78,31.009 169.768,31.099 184.744,31.107c13.262,0.007 16.498,0.755 29.269,34.99c13.395,35.907 1.51,94.773 -19.547,118.897c-11.245,12.882 -123.737,24.619 -193.534,-14.889l-5.58,-1.144c-16.48,-14.32 -13.987,-20.763 -12.05,-73.212c3.579,-96.911 0.528,-100.713 14.26,-109.471Z" style="fill:#4a0d1c;"/><path d="M767.178,104.496c5.623,-4.535 16.746,-22.467 51.049,-21.299c159.008,5.413 166.363,16.734 174.49,29.244c10.679,16.438 12.158,21.819 14.831,225.861c0.438,33.446 2.126,36.884 -22.595,57.281c-19.014,-16.369 -36.957,5.726 -45.338,-10.424c-17.102,-32.957 -3.585,-125.806 -10.013,-188.388c-3.196,-31.112 -137.496,4.623 -150.187,-37.457c-8.703,-28.857 0.725,-42.9 -12.237,-54.817Z" style="fill:#ee6531;"/></g></g></svg>