<?xml version="1.0" encoding="UTF-8" standalone="no"?><!DOCTYPE svg PUBLIC "-//W3C//DTD SVG 1.1//EN" "http://www.w3.org/Graphics/SVG/1.1/DTD/svg11.dtd"><svg width="100%" height="100%" viewBox="0 0 613 822" version="1.1" xmlns="http://www.w3.org/2000/svg" xmlns:xlink="http://www.w3.org/1999/xlink" xml:space="preserve" xmlns:serif="http://www.serif.com/" style="fill-rule:evenodd;clip-rule:evenodd;stroke-linejoin:round;stroke-miterlimit:2;"><rect x="132.057" y="48.365" width="422.449" height="641.156" style="fill:#ff00c6;fill-rule:nonzero;"/><path d="M587.511,806.797c0,3.894 -1.547,7.628 -4.3,10.381c-2.753,2.753 -6.487,4.3 -10.381,4.3l-517.859,-0c-16.734,0 -31.465,-8.572 -40.041,-21.565c-4.994,-7.566 -7.901,-16.632 -7.901,-26.377l0,-723.035c0,-27.89 22.612,-50.502 50.502,-50.502l7.855,0l12.166,8.333l11.925,-8.333l510.749,0c6.784,0 12.284,5.5 12.284,12.284l-0,727.374c-0,6.785 -5.5,12.284 -12.284,12.284l-12.716,-0l-0,54.854Zm-33.005,-117.277l0,-641.156l-422.449,0l0,641.156l422.449,0Z" style="fill:#772031;"/><clipPath id="_clip1"><path d="M587.511,806.797c0,3.894 -1.547,7.628 -4.3,10.381c-2.753,2.753 -6.487,4.3 -10.381,4.3l-517.859,-0c-16.734,0 -31.465,-8.572 -40.041,-21.565c-4.994,-7.566 -7.901,-16.632 -7.901,-26.377l0,-723.035c0,-27.89 22.612,-50.502 50.502,-50.502l7.855,0l12.166,8.333l11.925,-8.333l510.749,0c6.784,0 12.284,5.5 12.284,12.284l-0,727.374c-0,6.785 -5.5,12.284 -12.284,12.284l-12.716,-0l-0,54.854Zm-33.005,-117.277l0,-641.156l-422.449,0l0,641.156l422.449,0Z"/></clipPath><g clip-path="url(#_clip1)"><path d="M582.371,907.998c0,8.108 -6.573,14.681 -14.681,14.681l-515.171,0c-14.817,0 -27.86,-7.59 -35.453,-19.094c-4.422,-6.699 -6.996,-14.726 -6.996,-23.354l0,-98.519c0,-24.694 20.021,-44.715 44.715,-44.715l12.521,0l10.246,-8.333l10.97,8.333l503.699,0c3.258,0 6.383,1.294 8.686,3.598c2.304,2.304 3.598,5.428 3.598,8.686c0,23.765 0,75.78 0,99.545c0,3.258 -1.294,6.383 -3.598,8.686c-2.304,2.304 -5.428,3.598 -8.686,3.598c-5.1,-0 -9.851,-0 -9.851,-0l-0,46.887Z" style="fill:#49000e;fill-rule:nonzero;"/></g><g><path d="M312.481,23.758c13.235,-6.104 13.108,-6.482 14.739,-6.284c17.801,2.16 -30.595,27.808 -34.393,24.338c-7.505,-6.858 19.546,-17.996 19.654,-18.054Z" style="fill:#600f1c;"/><path d="M204.021,708.084c5.343,-0.98 5.308,-1.13 5.771,-1.059c18.613,2.868 -32.059,26.236 -26.939,10.359c1.339,-4.152 2.627,-2.654 21.168,-9.301Z" style="fill:#600f1d;"/><path d="M524.718,699.821c9.677,-3.17 10.098,-3.138 11.002,-3.07c15.741,1.183 -11.528,17.323 -20.298,13.885c-1.017,-0.399 -6.378,-6.01 9.296,-10.815Z" style="fill:#600f1d;"/><path d="M603.289,208.859c24.339,0.197 -6.386,16.212 -13.542,11.142c-7.766,-5.502 12.225,-10.793 13.542,-11.142Z" style="fill:#61101d;"/><path d="M567.798,137.396c3.416,-1.897 3.122,-1.805 3.416,-1.897c16.456,-5.125 -2.813,17.731 -11.947,16.96c-11.416,-0.963 7.439,-14.291 8.53,-15.063Z" style="fill:#5f0f1c;"/><path d="M106.381,298.093c-11.959,10.982 -11.584,0.429 -11.28,-0.499c0.265,-0.808 9.353,-14.05 15.239,-11.664c4.432,1.796 -3.331,11.387 -3.96,12.163Z" style="fill:#610f1d;"/></g><path d="M575.362,751.943l-4.167,24.95l4.167,25.867l-524.928,-0c-6.539,0 -12.811,-2.598 -17.434,-7.222c-4.624,-4.624 -7.222,-10.895 -7.222,-17.434c0,-0.502 0,-1.004 0,-1.506c0,-6.539 2.598,-12.811 7.222,-17.434c4.624,-4.624 10.895,-7.222 17.434,-7.222c106.898,-0 524.928,-0 524.928,-0Z" style="fill:#c9d1df;"/><clipPath id="_clip2"><path d="M575.362,751.943l-4.167,24.95l4.167,25.867l-524.928,-0c-6.539,0 -12.811,-2.598 -17.434,-7.222c-4.624,-4.624 -7.222,-10.895 -7.222,-17.434c0,-0.502 0,-1.004 0,-1.506c0,-6.539 2.598,-12.811 7.222,-17.434c4.624,-4.624 10.895,-7.222 17.434,-7.222c106.898,-0 524.928,-0 524.928,-0Z"/></clipPath><g clip-path="url(#_clip2)"><path d="M588.904,765.237l-4.167,24.95l4.167,25.867l-524.928,-0c-6.539,0 -12.811,-2.598 -17.434,-7.222c-4.624,-4.624 -7.222,-10.895 -7.222,-17.434c0,-0.502 0,-1.004 0,-1.506c0,-6.539 2.598,-12.811 7.222,-17.434c4.624,-4.624 10.895,-7.222 17.434,-7.222c106.898,-0 524.928,-0 524.928,-0Z" style="fill:#fff;"/></g><path d="M560.821,46.712l0,643.574c-0,3.488 -2.827,6.315 -6.315,6.315l-422.449,0c-3.488,-0 -6.315,-2.827 -6.315,-6.315l0,-643.574c0,-3.488 2.827,-6.315 6.315,-6.315l422.449,0c3.488,-0 6.315,2.827 6.315,6.315Zm-12.63,6.315l-409.819,-0l0,630.944l409.819,0l0,-630.944Z" style="fill:#f26730;"/><rect x="52.459" y="774.291" width="502.048" height="3.855" style="fill:#c9d1df;"/><rect x="52.459" y="786.791" width="502.048" height="3.855" style="fill:#c9d1df;"/><rect x="73.337" y="22.235" width="8.432" height="695.833" style="fill:#49000e;"/><path d="M84.941,106.098c7.132,0.026 12.9,5.815 12.9,12.947c0.023,17.289 0.023,48.43 0.023,65.353c-0.001,6.541 -4.873,12.058 -11.364,12.868c-18.654,2.475 -55.678,10.172 -75.677,33.108c-1.62,1.942 -4.283,2.661 -6.661,1.799c-2.378,-0.862 -3.961,-3.12 -3.961,-5.649c-0.201,-23.451 -0.201,-58.319 -0.201,-70.618c-0.002,-3.477 0.802,-6.908 2.347,-10.023c17.548,-34.914 60.834,-39.706 82.593,-39.785Z" style="fill:#49000e;"/><path d="M84.941,521.673c7.132,0.026 12.9,5.815 12.9,12.947c0.023,17.289 0.023,48.43 0.023,65.353c-0.001,6.541 -4.873,12.058 -11.364,12.868c-18.654,2.475 -55.678,10.172 -75.677,33.108c-1.62,1.942 -4.283,2.661 -6.661,1.799c-2.378,-0.862 -3.961,-3.12 -3.961,-5.649c-0.201,-23.451 -0.201,-58.319 -0.201,-70.618c-0.002,-3.477 0.802,-6.908 2.347,-10.023c17.548,-34.914 60.834,-39.706 82.593,-39.785Z" style="fill:#49000e;"/><path d="M123.297,112.648c-2.686,0 -5.262,-1.067 -7.161,-2.966c-1.899,-1.899 -2.966,-4.475 -2.966,-7.161c0,-16.22 0,-47.845 0,-64.065c-0,-2.686 1.067,-5.262 2.966,-7.161c1.899,-1.899 4.475,-2.966 7.161,-2.966c16.22,0 47.845,0 64.065,0c2.686,-0 5.262,1.067 7.161,2.966c1.899,1.899 2.966,4.475 2.966,7.161c0,3.544 0,7.521 0,11.065c0,2.686 -1.067,5.262 -2.966,7.161c-1.899,1.899 -4.475,2.966 -7.161,2.966c-9.407,-0 -23.34,-0 -32.747,-0c-5.593,0 -10.127,4.534 -10.127,10.127l0,32.747c-0,2.686 -1.067,5.262 -2.966,7.161c-1.899,1.899 -4.475,2.966 -7.161,2.966c-3.544,0 -7.521,0 -11.065,0Z" style="fill:#ee6531;"/><path d="M490.85,38.456c-0,-2.686 1.067,-5.262 2.966,-7.161c1.899,-1.899 4.475,-2.966 7.161,-2.966c16.22,0 47.845,0 64.065,0c2.686,-0 5.262,1.067 7.161,2.966c1.899,1.899 2.966,4.475 2.966,7.161c-0,16.22 -0,47.845 -0,64.065c0,2.686 -1.067,5.262 -2.966,7.161c-1.899,1.899 -4.475,2.966 -7.161,2.966c-3.544,0 -7.521,0 -11.065,0c-2.686,0 -5.262,-1.067 -7.161,-2.966c-1.899,-1.899 -2.966,-4.475 -2.966,-7.161c0,-9.407 0,-23.34 0,-32.747c-0,-5.593 -4.534,-10.127 -10.127,-10.127l-32.747,0c-2.686,-0 -5.262,-1.067 -7.161,-2.966c-1.899,-1.899 -2.966,-4.475 -2.966,-7.161c-0,-3.544 -0,-7.521 -0,-11.065Z" style="fill:#ee6531;"/><path d="M565.043,622.857c2.686,-0 5.262,1.067 7.161,2.966c1.899,1.899 2.966,4.475 2.966,7.161c-0,16.22 -0,47.845 -0,64.065c0,2.686 -1.067,5.262 -2.966,7.161c-1.899,1.899 -4.475,2.966 -7.161,2.966c-16.22,-0 -47.845,-0 -64.065,-0c-2.686,0 -5.262,-1.067 -7.161,-2.966c-1.899,-1.899 -2.966,-4.475 -2.966,-7.161c-0,-3.544 -0,-7.521 -0,-11.065c-0,-2.686 1.067,-5.262 2.966,-7.161c1.899,-1.899 4.475,-2.966 7.161,-2.966c9.407,0 23.34,0 32.747,0c5.593,-0 10.127,-4.534 10.127,-10.127l0,-32.747c0,-2.686 1.067,-5.262 2.966,-7.161c1.899,-1.899 4.475,-2.966 7.161,-2.966c3.544,-0 7.521,-0 11.065,-0Z" style="fill:#ee6531;"/><path d="M197.489,697.049c0,2.686 -1.067,5.262 -2.966,7.161c-1.899,1.899 -4.475,2.966 -7.161,2.966c-16.22,-0 -47.845,-0 -64.065,-0c-2.686,0 -5.262,-1.067 -7.161,-2.966c-1.899,-1.899 -2.966,-4.475 -2.966,-7.161c0,-16.22 0,-47.845 0,-64.065c-0,-2.686 1.067,-5.262 2.966,-7.161c1.899,-1.899 4.475,-2.966 7.161,-2.966c3.544,-0 7.521,-0 11.065,-0c2.686,-0 5.262,1.067 7.161,2.966c1.899,1.899 2.966,4.475 2.966,7.161c-0,9.407 -0,23.34 -0,32.747c0,5.593 4.534,10.127 10.127,10.127l32.747,-0c2.686,0 5.262,1.067 7.161,2.966c1.899,1.899 2.966,4.475 2.966,7.161c0,3.544 0,7.521 0,11.065Z" style="fill:#ee6531;"/></svg>